<?xml version="1.0" encoding="UTF-8"?>
<svg version="1.1" xmlns="http://www.w3.org/2000/svg" width="255" height="255">
<path d="M0 0 C47.52 0 95.04 0 144 0 C144 20.79 144 41.58 144 63 C175.68 63 207.36 63 240 63 C240 105.24 240 147.48 240 191 C244.95 191 249.9 191 255 191 C255 206.84 255 222.68 255 239 C250.05 239 245.1 239 240 239 C240 244.28 240 249.56 240 255 C197.76 255 155.52 255 112 255 C112 249.72 112 244.44 112 239 C96.16 239 80.32 239 64 239 C64 244.28 64 249.56 64 255 C53.44 255 42.88 255 32 255 C32 249.72 32 244.44 32 239 C21.44 239 10.88 239 0 239 C0 228.44 0 217.88 0 207 C10.56 207 21.12 207 32 207 C32 201.72 32 196.44 32 191 C26.72 191 21.44 191 16 191 C16 185.72 16 180.44 16 175 C10.72 175 5.44 175 0 175 C0 117.25 0 59.5 0 0 Z M64 191 C64 196.28 64 201.56 64 207 C74.56 207 85.12 207 96 207 C96 201.72 96 196.44 96 191 C85.44 191 74.88 191 64 191 Z " fill="#868686" transform="translate(0,0)"/>
<path d="M0 0 C5.28 0 10.56 0 16 0 C16 36.96 16 73.92 16 112 C20.95 112 25.9 112 31 112 C31 127.84 31 143.68 31 160 C26.05 160 21.1 160 16 160 C16 165.28 16 170.56 16 176 C-26.24 176 -68.48 176 -112 176 C-112 170.72 -112 165.44 -112 160 C-127.84 160 -143.68 160 -160 160 C-160 165.28 -160 170.56 -160 176 C-170.56 176 -181.12 176 -192 176 C-192 170.72 -192 165.44 -192 160 C-202.56 160 -213.12 160 -224 160 C-224 149.44 -224 138.88 -224 128 C-213.44 128 -202.88 128 -192 128 C-192 122.72 -192 117.44 -192 112 C-197.28 112 -202.56 112 -208 112 C-208 106.72 -208 101.44 -208 96 C-202.72 96 -197.44 96 -192 96 C-192 90.72 -192 85.44 -192 80 C-181.44 80 -170.88 80 -160 80 C-160 85.28 -160 90.56 -160 96 C-149.44 96 -138.88 96 -128 96 C-128 101.28 -128 106.56 -128 112 C-122.72 112 -117.44 112 -112 112 C-112 106.72 -112 101.44 -112 96 C-75.04 96 -38.08 96 0 96 C0 64.32 0 32.64 0 0 Z M-160 112 C-160 117.28 -160 122.56 -160 128 C-149.44 128 -138.88 128 -128 128 C-128 122.72 -128 117.44 -128 112 C-138.56 112 -149.12 112 -160 112 Z " fill="#777777" transform="translate(224,79)"/>
<path d="M0 0 C36.96 0 73.92 0 112 0 C112 31.68 112 63.36 112 96 C75.04 96 38.08 96 0 96 C0 64.32 0 32.64 0 0 Z " fill="#C0C0C0" transform="translate(112,79)"/>
<path d="M0 0 C47.52 0 95.04 0 144 0 C144 20.79 144 41.58 144 63 C138.72 63 133.44 63 128 63 C128 47.16 128 31.32 128 15 C91.04 15 54.08 15 16 15 C16 46.68 16 78.36 16 111 C42.4 111 68.8 111 96 111 C96 116.28 96 121.56 96 127 C64.32 127 32.64 127 0 127 C0 85.09 0 43.18 0 0 Z " fill="#868686" transform="translate(0,0)"/>
<path d="M0 0 C10.56 0 21.12 0 32 0 C32 5.28 32 10.56 32 16 C42.56 16 53.12 16 64 16 C64 21.28 64 26.56 64 32 C53.44 32 42.88 32 32 32 C32 37.28 32 42.56 32 48 C37.28 48 42.56 48 48 48 C48 53.28 48 58.56 48 64 C53.28 64 58.56 64 64 64 C64 69.28 64 74.56 64 80 C53.44 80 42.88 80 32 80 C32 85.28 32 90.56 32 96 C21.44 96 10.88 96 0 96 C0 90.72 0 85.44 0 80 C-10.56 80 -21.12 80 -32 80 C-32 69.44 -32 58.88 -32 48 C-21.44 48 -10.88 48 0 48 C0 42.72 0 37.44 0 32 C-5.28 32 -10.56 32 -16 32 C-16 26.72 -16 21.44 -16 16 C-10.72 16 -5.44 16 0 16 C0 10.72 0 5.44 0 0 Z " fill="#FFFF00" transform="translate(32,159)"/>
<path d="M0 0 C26.4 0 52.8 0 80 0 C80 10.56 80 21.12 80 32 C74.72 32 69.44 32 64 32 C64 42.56 64 53.12 64 64 C42.88 64 21.76 64 0 64 C0 42.88 0 21.76 0 0 Z " fill="#3333CC" transform="translate(32,31)"/>
<path d="M0 0 C36.96 0 73.92 0 112 0 C112 15.84 112 31.68 112 48 C106.72 48 101.44 48 96 48 C96 37.44 96 26.88 96 16 C69.6 16 43.2 16 16 16 C16 37.12 16 58.24 16 80 C37.12 80 58.24 80 80 80 C80 85.28 80 90.56 80 96 C53.6 96 27.2 96 0 96 C0 64.32 0 32.64 0 0 Z " fill="#F8F8F8" transform="translate(16,15)"/>
<path d="M0 0 C26.4 0 52.8 0 80 0 C80 21.12 80 42.24 80 64 C69.44 64 58.88 64 48 64 C48 48.16 48 32.32 48 16 C37.44 16 26.88 16 16 16 C16 31.84 16 47.68 16 64 C10.72 64 5.44 64 0 64 C0 42.88 0 21.76 0 0 Z " fill="#003366" transform="translate(128,95)"/>
<path d="M0 0 C36.96 0 73.92 0 112 0 C112 10.56 112 21.12 112 32 C90.88 32 69.76 32 48 32 C48 26.72 48 21.44 48 16 C37.44 16 26.88 16 16 16 C16 21.28 16 26.56 16 32 C10.72 32 5.44 32 0 32 C0 21.44 0 10.88 0 0 Z " fill="#F8F8F8" transform="translate(112,207)"/>
<path d="M0 0 C36.96 0 73.92 0 112 0 C112 5.28 112 10.56 112 16 C80.32 16 48.64 16 16 16 C16 42.4 16 68.8 16 96 C10.72 96 5.44 96 0 96 C0 64.32 0 32.64 0 0 Z " fill="#F8F8F8" transform="translate(112,79)"/>
<path d="M0 0 C10.56 0 21.12 0 32 0 C32 5.28 32 10.56 32 16 C58.4 16 84.8 16 112 16 C112 21.28 112 26.56 112 32 C69.76 32 27.52 32 -16 32 C-16 26.72 -16 21.44 -16 16 C-10.72 16 -5.44 16 0 16 C0 10.72 0 5.44 0 0 Z " fill="#1C1C1C" transform="translate(128,223)"/>
<path d="M0 0 C10.56 0 21.12 0 32 0 C32 5.28 32 10.56 32 16 C42.56 16 53.12 16 64 16 C64 21.28 64 26.56 64 32 C53.44 32 42.88 32 32 32 C32 37.28 32 42.56 32 48 C21.44 48 10.88 48 0 48 C0 42.72 0 37.44 0 32 C-5.28 32 -10.56 32 -16 32 C-16 26.72 -16 21.44 -16 16 C-10.72 16 -5.44 16 0 16 C0 10.72 0 5.44 0 0 Z " fill="#1D1D1D" transform="translate(32,159)"/>
<path d="M0 0 C26.4 0 52.8 0 80 0 C80 10.56 80 21.12 80 32 C69.44 32 58.88 32 48 32 C48 26.72 48 21.44 48 16 C37.44 16 26.88 16 16 16 C16 21.28 16 26.56 16 32 C10.72 32 5.44 32 0 32 C0 21.44 0 10.88 0 0 Z " fill="#F8F8F8" transform="translate(16,143)"/>
<path d="M0 0 C31.68 0 63.36 0 96 0 C96 5.28 96 10.56 96 16 C69.6 16 43.2 16 16 16 C16 26.56 16 37.12 16 48 C10.72 48 5.44 48 0 48 C0 32.16 0 16.32 0 0 Z " fill="#777777" transform="translate(0,127)"/>
<path d="M0 0 C26.4 0 52.8 0 80 0 C80 5.28 80 10.56 80 16 C58.88 16 37.76 16 16 16 C16 31.84 16 47.68 16 64 C10.72 64 5.44 64 0 64 C0 42.88 0 21.76 0 0 Z " fill="#330099" transform="translate(32,31)"/>
<path d="M0 0 C36.96 0 73.92 0 112 0 C112 5.28 112 10.56 112 16 C75.04 16 38.08 16 0 16 C0 10.72 0 5.44 0 0 Z " fill="#000000" transform="translate(112,175)"/>
<path d="M0 0 C10.56 0 21.12 0 32 0 C32 15.84 32 31.68 32 48 C21.44 48 10.88 48 0 48 C0 32.16 0 16.32 0 0 Z " fill="#339999" transform="translate(144,111)"/>
<path d="M0 0 C5.28 0 10.56 0 16 0 C16 31.68 16 63.36 16 96 C10.72 96 5.44 96 0 96 C0 64.32 0 32.64 0 0 Z " fill="#020202" transform="translate(224,79)"/>
<path d="M0 0 C26.4 0 52.8 0 80 0 C80 5.28 80 10.56 80 16 C53.6 16 27.2 16 0 16 C0 10.72 0 5.44 0 0 Z " fill="#000000" transform="translate(16,111)"/>
<path d="M0 0 C21.12 0 42.24 0 64 0 C64 5.28 64 10.56 64 16 C42.88 16 21.76 16 0 16 C0 10.72 0 5.44 0 0 Z " fill="#C0C0C0" transform="translate(160,223)"/>
<path d="M0 0 C21.12 0 42.24 0 64 0 C64 5.28 64 10.56 64 16 C42.88 16 21.76 16 0 16 C0 10.72 0 5.44 0 0 Z " fill="#C0C0C0" transform="translate(32,95)"/>
<path d="M0 0 C10.56 0 21.12 0 32 0 C32 10.56 32 21.12 32 32 C26.72 32 21.44 32 16 32 C16 26.72 16 21.44 16 16 C10.72 16 5.44 16 0 16 C0 10.72 0 5.44 0 0 Z " fill="#666666" transform="translate(80,207)"/>
<path d="M0 0 C5.28 0 10.56 0 16 0 C16 5.28 16 10.56 16 16 C21.28 16 26.56 16 32 16 C32 21.28 32 26.56 32 32 C21.44 32 10.88 32 0 32 C0 21.44 0 10.88 0 0 Z " fill="#1C1C1C" transform="translate(64,207)"/>
<path d="M0 0 C5.28 0 10.56 0 16 0 C16 15.84 16 31.68 16 48 C10.72 48 5.44 48 0 48 C0 32.16 0 16.32 0 0 Z " fill="#008080" transform="translate(176,111)"/>
<path d="M0 0 C5.28 0 10.56 0 16 0 C16 15.84 16 31.68 16 48 C10.72 48 5.44 48 0 48 C0 32.16 0 16.32 0 0 Z " fill="#006666" transform="translate(192,111)"/>
<path d="M0 0 C10.56 0 21.12 0 32 0 C32 5.28 32 10.56 32 16 C26.72 16 21.44 16 16 16 C16 21.28 16 26.56 16 32 C10.72 32 5.44 32 0 32 C0 21.44 0 10.88 0 0 Z " fill="#33CCCC" transform="translate(144,111)"/>
<path d="M0 0 C10.56 0 21.12 0 32 0 C32 5.28 32 10.56 32 16 C26.72 16 21.44 16 16 16 C16 21.28 16 26.56 16 32 C10.72 32 5.44 32 0 32 C0 21.44 0 10.88 0 0 Z " fill="#6699FF" transform="translate(48,47)"/>
<path d="M0 0 C5.28 0 10.56 0 16 0 C16 15.84 16 31.68 16 48 C10.72 48 5.44 48 0 48 C0 32.16 0 16.32 0 0 Z " fill="#000000" transform="translate(128,15)"/>
<path d="M0 0 C4.95 0 9.9 0 15 0 C15 15.84 15 31.68 15 48 C10.05 48 5.1 48 0 48 C0 32.16 0 16.32 0 0 Z " fill="#000000" transform="translate(240,191)"/>
<path d="M0 0 C10.56 0 21.12 0 32 0 C32 5.28 32 10.56 32 16 C21.44 16 10.88 16 0 16 C0 10.72 0 5.44 0 0 Z " fill="#1C1C1C" transform="translate(32,239)"/>
<path d="M0 0 C10.56 0 21.12 0 32 0 C32 5.28 32 10.56 32 16 C21.44 16 10.88 16 0 16 C0 10.72 0 5.44 0 0 Z " fill="#006633" transform="translate(128,223)"/>
<path d="M0 0 C10.56 0 21.12 0 32 0 C32 5.28 32 10.56 32 16 C21.44 16 10.88 16 0 16 C0 10.72 0 5.44 0 0 Z " fill="#1F1F1F" transform="translate(0,223)"/>
<path d="M0 0 C5.28 0 10.56 0 16 0 C16 10.56 16 21.12 16 32 C10.72 32 5.44 32 0 32 C0 21.44 0 10.88 0 0 Z " fill="#FF9900" transform="translate(48,207)"/>
<path d="M0 0 C10.56 0 21.12 0 32 0 C32 5.28 32 10.56 32 16 C21.44 16 10.88 16 0 16 C0 10.72 0 5.44 0 0 Z " fill="#868686" transform="translate(0,207)"/>
<path d="M0 0 C10.56 0 21.12 0 32 0 C32 5.28 32 10.56 32 16 C21.44 16 10.88 16 0 16 C0 10.72 0 5.44 0 0 Z " fill="#C0C0C0" transform="translate(64,159)"/>
<path d="M0 0 C10.56 0 21.12 0 32 0 C32 5.28 32 10.56 32 16 C21.44 16 10.88 16 0 16 C0 10.72 0 5.44 0 0 Z " fill="#006633" transform="translate(32,159)"/>
<path d="M0 0 C5.28 0 10.56 0 16 0 C16 10.56 16 21.12 16 32 C10.72 32 5.44 32 0 32 C0 21.44 0 10.88 0 0 Z " fill="#666666" transform="translate(0,143)"/>
<path d="M0 0 C5.28 0 10.56 0 16 0 C16 10.56 16 21.12 16 32 C10.72 32 5.44 32 0 32 C0 21.44 0 10.88 0 0 Z " fill="#C0C0C0" transform="translate(112,31)"/>
<path d="M0 0 C5.28 0 10.56 0 16 0 C16 5.28 16 10.56 16 16 C10.72 16 5.44 16 0 16 C0 10.72 0 5.44 0 0 Z " fill="#00FF00" transform="translate(128,223)"/>
<path d="M0 0 C5.28 0 10.56 0 16 0 C16 5.28 16 10.56 16 16 C10.72 16 5.44 16 0 16 C0 10.72 0 5.44 0 0 Z " fill="#C0C0C0" transform="translate(112,223)"/>
<path d="M0 0 C5.28 0 10.56 0 16 0 C16 5.28 16 10.56 16 16 C10.72 16 5.44 16 0 16 C0 10.72 0 5.44 0 0 Z " fill="#868686" transform="translate(80,207)"/>
<path d="M0 0 C5.28 0 10.56 0 16 0 C16 5.28 16 10.56 16 16 C10.72 16 5.44 16 0 16 C0 10.72 0 5.44 0 0 Z " fill="#F8F8F8" transform="translate(32,207)"/>
<path d="M0 0 C5.28 0 10.56 0 16 0 C16 5.28 16 10.56 16 16 C10.72 16 5.44 16 0 16 C0 10.72 0 5.44 0 0 Z " fill="#000000" transform="translate(48,191)"/>
<path d="M0 0 C5.28 0 10.56 0 16 0 C16 5.28 16 10.56 16 16 C10.72 16 5.44 16 0 16 C0 10.72 0 5.44 0 0 Z " fill="#868686" transform="translate(32,191)"/>
<path d="M0 0 C5.28 0 10.56 0 16 0 C16 5.28 16 10.56 16 16 C10.72 16 5.44 16 0 16 C0 10.72 0 5.44 0 0 Z " fill="#666666" transform="translate(224,175)"/>
<path d="M0 0 C5.28 0 10.56 0 16 0 C16 5.28 16 10.56 16 16 C10.72 16 5.44 16 0 16 C0 10.72 0 5.44 0 0 Z " fill="#CCCCCC" transform="translate(128,159)"/>
<path d="M0 0 C5.28 0 10.56 0 16 0 C16 5.28 16 10.56 16 16 C10.72 16 5.44 16 0 16 C0 10.72 0 5.44 0 0 Z " fill="#00FF00" transform="translate(32,159)"/>
<path d="M0 0 C5.28 0 10.56 0 16 0 C16 5.28 16 10.56 16 16 C10.72 16 5.44 16 0 16 C0 10.72 0 5.44 0 0 Z " fill="#080808" transform="translate(224,143)"/>
<path d="M0 0 C5.28 0 10.56 0 16 0 C16 5.28 16 10.56 16 16 C10.72 16 5.44 16 0 16 C0 10.72 0 5.44 0 0 Z " fill="#F1F1F1" transform="translate(112,143)"/>
<path d="M0 0 C5.28 0 10.56 0 16 0 C16 5.28 16 10.56 16 16 C10.72 16 5.44 16 0 16 C0 10.72 0 5.44 0 0 Z " fill="#33CCCC" transform="translate(144,127)"/>
<path d="M0 0 C5.28 0 10.56 0 16 0 C16 5.28 16 10.56 16 16 C10.72 16 5.44 16 0 16 C0 10.72 0 5.44 0 0 Z " fill="#FFFBF0" transform="translate(112,127)"/>
<path d="M0 0 C5.28 0 10.56 0 16 0 C16 5.28 16 10.56 16 16 C10.72 16 5.44 16 0 16 C0 10.72 0 5.44 0 0 Z " fill="#339999" transform="translate(176,111)"/>
<path d="M0 0 C5.28 0 10.56 0 16 0 C16 5.28 16 10.56 16 16 C10.72 16 5.44 16 0 16 C0 10.72 0 5.44 0 0 Z " fill="#00FFFF" transform="translate(144,111)"/>
<path d="M0 0 C5.28 0 10.56 0 16 0 C16 5.28 16 10.56 16 16 C10.72 16 5.44 16 0 16 C0 10.72 0 5.44 0 0 Z " fill="#000000" transform="translate(224,79)"/>
<path d="M0 0 C5.28 0 10.56 0 16 0 C16 5.28 16 10.56 16 16 C10.72 16 5.44 16 0 16 C0 10.72 0 5.44 0 0 Z " fill="#6699FF" transform="translate(48,63)"/>
<path d="M0 0 C5.28 0 10.56 0 16 0 C16 5.28 16 10.56 16 16 C10.72 16 5.44 16 0 16 C0 10.72 0 5.44 0 0 Z " fill="#080808" transform="translate(128,47)"/>
<path d="M0 0 C5.28 0 10.56 0 16 0 C16 5.28 16 10.56 16 16 C10.72 16 5.44 16 0 16 C0 10.72 0 5.44 0 0 Z " fill="#00FFFF" transform="translate(48,47)"/>
<path d="M0 0 C4.95 0 9.9 0 15 0 C15 5.28 15 10.56 15 16 C10.05 16 5.1 16 0 16 C0 10.72 0 5.44 0 0 Z " fill="#080808" transform="translate(240,191)"/>
</svg>
