<?xml version="1.0"?><svg xmlns="http://www.w3.org/2000/svg"  viewBox="0 0 50 50" width="50px" height="50px">    <path d="M 15 2 L 15 4 L 13 4 L 13 6 L 11 6 L 11 28 L 39 28 L 39 26 L 41 26 L 41 24 L 43 24 L 43 4 L 41 4 L 41 6 L 39 6 L 39 8 L 37 8 L 37 6 L 39 6 L 39 4 L 41 4 L 41 2 L 15 2 z M 16 11 L 34 11 L 34 23 L 16 23 L 16 11 z M 45 24 L 45 26 L 43 26 L 43 28 L 41 28 L 41 42 L 43 42 L 43 40 L 45 40 L 45 38 L 47 38 L 47 24 L 45 24 z M 7 30 L 7 42 L 39 42 L 39 30 L 7 30 z M 23 34 L 35 34 L 35 36 L 33 36 L 33 38 L 31 38 L 31 36 L 23 36 L 23 34 z M 12 36 L 14 36 L 14 38 L 12 38 L 12 36 z M 3 44 L 3 48 L 37 48 L 37 46 L 39 46 L 39 44 L 3 44 z"/></svg>